<svg width="16" height="16" viewBox="0 0 16 16" fill="none" xmlns="http://www.w3.org/2000/svg">
<path d="M6.16504 1.18677C6.36971 1.12677 6.59151 1.20351 6.71484 1.37817C6.83808 1.5528 6.83685 1.78692 6.71094 1.96021C6.05827 2.86087 5.71289 3.92628 5.71289 5.04028C5.71295 7.93212 8.06584 10.2852 10.959 10.2854C12.075 10.2854 13.1404 9.93971 14.0391 9.28638C14.2123 9.16072 14.4466 9.15925 14.6211 9.28247C14.7957 9.40582 14.8725 9.627 14.8125 9.83228C14.3978 11.2469 13.5201 12.5196 12.3408 13.4163C11.1222 14.3436 9.66677 14.8322 8.13281 14.8323C4.29178 14.832 1.1671 11.7094 1.16699 7.87036C1.16699 6.33508 1.6564 4.87873 2.58301 3.65942C3.47961 2.48017 4.75182 1.60213 6.16504 1.18677ZM5.16797 2.69458C4.4773 3.09191 3.86455 3.62689 3.37988 4.26489C2.5866 5.30887 2.16699 6.55574 2.16699 7.87036C2.1671 11.1583 4.84385 13.8333 8.13379 13.8333C10.2895 13.8331 12.26 12.649 13.3066 10.8313C12.5687 11.1313 11.7759 11.2854 10.96 11.2854C7.51536 11.2854 4.71295 8.48421 4.71289 5.04028C4.71289 4.22562 4.86864 3.43325 5.16797 2.69458ZM11.6709 1.16821C12.0388 1.17028 12.3689 1.41264 12.5762 1.83325L13.0352 2.76392C13.0445 2.7739 13.0626 2.78657 13.0752 2.79321L13.9102 2.93188C14.3613 3.00789 14.6835 3.25195 14.7949 3.60181C14.9062 3.95165 14.7849 4.33715 14.4619 4.6604L13.8115 5.31763C13.8055 5.32965 13.8005 5.35121 13.7998 5.3645L13.9824 6.17505C14.1469 6.87736 13.8637 7.20925 13.6797 7.34399C13.5784 7.41799 13.4114 7.50317 13.1787 7.50317L13.1768 7.50122C12.9861 7.50121 12.7506 7.44514 12.4707 7.27856L11.6904 6.80981C11.6771 6.80723 11.6558 6.80718 11.6426 6.80981L10.8643 7.27759C10.2417 7.64821 9.84028 7.4767 9.65625 7.34204C9.47225 7.20671 9.18752 6.87452 9.35352 6.16919L9.53613 5.36255C9.53541 5.3492 9.52972 5.32761 9.52441 5.31567L8.87207 4.65747C8.54941 4.33014 8.4303 3.94266 8.54297 3.59399C8.65568 3.24741 8.97687 3.00556 9.4248 2.93091L10.2578 2.79224C10.2683 2.78634 10.2829 2.7745 10.291 2.76587L10.752 1.83228C10.9666 1.40832 11.2987 1.16826 11.666 1.16821H11.6709ZM11.6465 2.27856L11.1826 3.21899C11.0434 3.49486 10.7418 3.72154 10.4473 3.77368L9.58887 3.91626C9.5762 3.91826 9.56438 3.9211 9.55371 3.9231C9.56238 3.9331 9.57234 3.94301 9.58301 3.95435L10.2422 4.62036C10.4714 4.84837 10.5856 5.2375 10.5156 5.56274L10.3271 6.3938C10.3238 6.40913 10.321 6.42441 10.3184 6.43774C10.3282 6.43181 10.3394 6.42577 10.3506 6.41919L11.1426 5.9436C11.2959 5.85362 11.482 5.80886 11.668 5.80884C11.8526 5.80884 12.0365 5.85267 12.1865 5.94067L12.9834 6.41919C12.9941 6.42586 13.0046 6.43241 13.0146 6.43774C13.012 6.42508 13.0092 6.41171 13.0059 6.39771L12.8184 5.5686C12.7478 5.23675 12.8613 4.84806 13.0938 4.61743L13.751 3.95337C13.7616 3.9427 13.7716 3.93243 13.7803 3.9231C13.7689 3.92043 13.7565 3.91893 13.7432 3.91626L12.8916 3.77368C12.5884 3.72037 12.2842 3.49505 12.1475 3.22388L11.6787 2.27368C11.6734 2.26368 11.6687 2.25403 11.6641 2.24536C11.6587 2.25536 11.6525 2.26656 11.6465 2.27856Z" fill="#646464"/>
</svg>
