<svg width="20" height="20" viewBox="0 0 20 20" fill="none" xmlns="http://www.w3.org/2000/svg">
<path d="M10 1.04077C13.5583 1.04077 16.4579 3.94054 16.458 7.49878C16.458 9.56545 15.4747 11.4072 13.958 12.5906V17.0906C13.958 17.9487 13.9584 18.5737 13.3838 18.8572C13.2421 18.9238 13.1079 18.9578 12.9746 18.9578C12.5581 18.9576 12.1502 18.6569 11.6338 18.2654L10.625 17.5076C10.3667 17.3159 10.0833 17.0989 10 17.0906C9.91667 17.0989 9.63333 17.3159 9.375 17.5076L8.375 18.2576C7.6834 18.7742 7.19118 19.1488 6.61621 18.8572C6.04164 18.5737 6.04199 17.9487 6.04199 17.0906V12.5906C4.52533 11.4072 3.54199 9.56545 3.54199 7.49878C3.5421 3.94054 6.44174 1.04077 10 1.04077ZM12.708 13.3572C11.8831 13.7404 10.9666 13.9578 10 13.9578C9.03342 13.9578 8.11693 13.7404 7.29199 13.3572V17.5154C7.3918 17.4405 7.50811 17.3573 7.61621 17.2742L8.625 16.5154C9.15826 16.1154 9.51671 15.8494 10 15.8494C10.4833 15.8494 10.8417 16.1154 11.375 16.5154L12.375 17.2654C12.4916 17.3487 12.608 17.4326 12.708 17.5076V13.3572ZM10 2.29077C7.12507 2.29077 4.7921 4.62387 4.79199 7.49878C4.79199 10.3738 7.125 12.7078 10 12.7078C12.875 12.7078 15.208 10.3738 15.208 7.49878C15.2079 4.62387 12.8749 2.29077 10 2.29077ZM10.0166 3.53198C10.3665 3.53208 10.6913 3.73245 10.8496 4.05737L11.458 5.30737L12.7666 5.52417C13.1081 5.58257 13.3916 5.82385 13.5 6.15698C13.6083 6.49856 13.5247 6.86546 13.2832 7.12378L12.3242 8.12378L12.5332 9.52417C12.5831 9.89069 12.4331 10.2407 12.1416 10.449C11.8583 10.6489 11.4831 10.6741 11.1748 10.5076L10 9.88257L8.82422 10.5076C8.69108 10.5823 8.54134 10.6159 8.3916 10.616C8.20836 10.616 8.01668 10.5655 7.8584 10.449C7.55843 10.2407 7.41685 9.88246 7.4668 9.52417L7.6748 8.12378H7.70801L6.75 7.12378C6.5 6.86545 6.41654 6.49865 6.5332 6.15698C6.64163 5.82384 6.92506 5.58248 7.2666 5.52417L8.57422 5.30737L9.18262 4.05737C9.34095 3.73237 9.6666 3.53198 10.0166 3.53198ZM9.6084 5.99878C9.47509 6.27373 9.21641 6.46534 8.9248 6.51538L8.0166 6.66577L8.68262 7.36597C8.88262 7.5743 8.97428 7.8741 8.93262 8.16577L8.79102 9.10718L9.56641 8.69897C9.69973 8.62399 9.85002 8.59058 10 8.59058C10.1498 8.59062 10.2995 8.62415 10.4326 8.69897L11.208 9.10718L11.0664 8.16577C11.0247 7.87418 11.1165 7.57429 11.3164 7.36597L11.9834 6.66577L11.0742 6.51538C10.7828 6.46525 10.5249 6.27362 10.3916 5.99878L10 5.19019L9.6084 5.99878Z" fill="#131313"/>
</svg>
