<svg width="20" height="20" viewBox="0 0 20 20" fill="none" xmlns="http://www.w3.org/2000/svg">
<path d="M9.92987 2.94263C10.3211 2.07868 11.3258 1.66379 12.2248 1.98267C13.1226 2.30126 13.6263 3.24948 13.3703 4.15747C13.5619 4.16234 13.7556 4.19687 13.9445 4.26392C14.8422 4.58254 15.3461 5.53076 15.09 6.43872C15.2815 6.44362 15.4754 6.47816 15.6642 6.54517C16.6088 6.88062 17.1161 7.91252 16.7619 8.86157L16.0734 10.7063C16.0695 10.7168 16.0661 10.7274 16.0617 10.7375L15.0558 13.4319C14.763 14.2164 14.5317 14.8335 14.3127 15.3215C14.0896 15.8186 13.862 16.2208 13.5578 16.5627C12.6929 17.5349 11.4505 18.1005 10.1408 18.1243C9.68107 18.1326 9.22251 18.0456 8.69159 17.8938C8.16982 17.7446 7.5394 17.5215 6.73651 17.2366L6.71698 17.2297C6.69266 17.2211 6.66848 17.2118 6.64471 17.2034C5.85374 16.9228 5.36427 16.7493 4.93866 16.4856C4.29008 16.0837 3.75202 15.5293 3.37518 14.8713C3.1278 14.4392 2.97634 13.9494 2.73358 13.1643C2.72607 13.14 2.71881 13.115 2.71112 13.0901L1.54413 9.31958C1.27759 8.45796 1.64549 7.53715 2.41718 7.07739C3.41706 6.48177 4.73438 6.85842 5.23846 7.91626L5.38397 8.22095L7.06171 3.72681C7.41309 2.78553 8.46658 2.31976 9.40448 2.65259C9.59935 2.72179 9.77592 2.82096 9.92987 2.94263ZM11.8068 3.1604C11.4912 3.04856 11.159 3.21265 11.0539 3.49341L9.26288 8.28931C9.14217 8.61266 8.78253 8.77716 8.45917 8.65649C8.13591 8.53582 7.97153 8.17607 8.09198 7.85278L9.33221 4.53149C9.43351 4.25861 9.29486 3.93995 8.98651 3.83032C8.67062 3.71822 8.33756 3.88315 8.2326 4.16431L6.03925 10.0393C5.95149 10.2744 5.73134 10.4346 5.48065 10.4456C5.23003 10.4564 4.99673 10.3156 4.88885 10.0891L4.11053 8.45435C3.93146 8.07839 3.44117 7.92188 3.05682 8.15063C2.76932 8.32193 2.64667 8.65225 2.73846 8.94946L3.90546 12.7209C4.17848 13.6035 4.28976 13.9527 4.46014 14.2502C4.73256 14.7259 5.12289 15.1294 5.59686 15.4231C5.89444 15.6075 6.24896 15.7366 7.13495 16.051C7.96201 16.3445 8.55565 16.5555 9.03534 16.6926C9.50965 16.8282 9.83324 16.8793 10.1174 16.8743C11.0831 16.8568 11.9943 16.4397 12.6242 15.7317C12.8085 15.5244 12.9749 15.2513 13.173 14.8098C13.3736 14.363 13.5897 13.7832 13.8918 12.9739L15.1769 9.53149C15.1808 9.52104 15.1852 9.51036 15.1896 9.50024L15.591 8.42505C15.6929 8.15199 15.5549 7.83267 15.2463 7.7229C14.9305 7.61085 14.5975 7.77501 14.4924 8.05591L13.8039 9.90063C13.6832 10.224 13.3226 10.3885 12.9992 10.2678C12.6761 10.1471 12.5117 9.78728 12.632 9.46411L13.8723 6.1438C13.9742 5.87063 13.8354 5.55131 13.5266 5.44165C13.2108 5.32959 12.8777 5.49369 12.7726 5.77466L11.5334 9.09497C11.4127 9.41823 11.053 9.58262 10.7297 9.46216C10.4064 9.34148 10.242 8.98175 10.3625 8.65845L11.6017 5.33813L12.1525 3.86255C12.2545 3.58936 12.1158 3.27003 11.8068 3.1604ZM17.5773 11.0735C17.9047 10.9641 18.259 11.1416 18.3683 11.469C18.9235 13.1315 18.1006 14.984 16.466 15.5862C16.1421 15.7055 15.7826 15.54 15.6633 15.2161C15.544 14.8922 15.7105 14.5326 16.0344 14.4133C16.995 14.0592 17.5379 12.9274 17.1828 11.8645C17.0735 11.5372 17.25 11.1829 17.5773 11.0735Z" fill="#05603A"/>
</svg>
